HIERARCHY
ROOT hips
{
  OFFSET 4.514983404067499e-9 10.105397940993303 1.318478203070619
  CHANNELS 6 Xposition Yposition Zposition Yrotation Xrotation Zrotation
  JOINT spine
  {
    OFFSET -3.891297943093837e-9 0.5743022203102706 0
    CHANNELS 3 Yrotation Xrotation Zrotation
    JOINT chest
    {
      OFFSET 0 1.2550312016247926 0
      CHANNELS 3 Yrotation Xrotation Zrotation
      JOINT upperChest
      {
        OFFSET 0 1.2059856050120283 0
        CHANNELS 3 Yrotation Xrotation Zrotation
        JOINT neck
        {
          OFFSET 0 1.5290392449770056 0
          CHANNELS 3 Yrotation Xrotation Zrotation
          JOINT head
          {
            OFFSET 0 0.8186276690878121 0
            CHANNELS 3 Yrotation Xrotation Zrotation
            JOINT leftEye
            {
              OFFSET 0.4540883942785781 -0.2684596961258452 0.6133497327236779
              CHANNELS 3 Yrotation Xrotation Zrotation
              End Site
              {
                OFFSET 0.4540883942785781 -0.2684596961258452 0.6133497327236779
              }
            }
            JOINT rightEye
            {
              OFFSET -0.4540889229417456 -0.26846010916843954 0.6133525398671689
              CHANNELS 3 Yrotation Xrotation Zrotation
              End Site
              {
                OFFSET -0.4540889229417456 -0.26846010916843954 0.6133525398671689
              }
            }
          }
        }
        JOINT leftShoulder
        {
          OFFSET 1.1700010731725468 -0.4176065950681176 0
          CHANNELS 3 Yrotation Xrotation Zrotation
          JOINT leftUpperArm
          {
            OFFSET 1.1803911524554955 0 0
            CHANNELS 3 Yrotation Xrotation Zrotation
            JOINT leftLowerArm
            {
              OFFSET 2.4406171707858904 0 0
              CHANNELS 3 Yrotation Xrotation Zrotation
              JOINT leftHand
              {
                OFFSET 2.3832177068873874 0 0
                CHANNELS 3 Yrotation Xrotation Zrotation
                JOINT leftIndexProximal
                {
                  OFFSET 0.7310175006235151 0.08192774217833776 0.20404791572985242
                  CHANNELS 3 Yrotation Xrotation Zrotation
                  JOINT leftIndexIntermediate
                  {
                    OFFSET 0.3688845439429529 -0.010662034455094949 -0.014226011560394963
                    CHANNELS 3 Yrotation Xrotation Zrotation
                    JOINT leftIndexDistal
                    {
                      OFFSET 0.2271119941018298 -0.007897656478952575 -0.007580683836364496
                      CHANNELS 3 Yrotation Xrotation Zrotation
                      End Site
                      {
                        OFFSET 0.2271119941018298 -0.007897656478952575 -0.007580683836364496
                      }
                    }
                  }
                }
                JOINT leftLittleProximal
                {
                  OFFSET 0.678269929308182 0.08192620621401336 -0.323876516389586
                  CHANNELS 3 Yrotation Xrotation Zrotation
                  JOINT leftLittleIntermediate
                  {
                    OFFSET 0.34904545821382604 -0.0000017106393073174075 8.629360392919949e-9
                    CHANNELS 3 Yrotation Xrotation Zrotation
                    JOINT leftLittleDistal
                    {
                      OFFSET 0.2011060672849896 0.0031247840072243793 0.0038660318003989197
                      CHANNELS 3 Yrotation Xrotation Zrotation
                      End Site
                      {
                        OFFSET 0.2011060672849896 0.0031247840072243793 0.0038660318003989197
                      }
                    }
                  }
                }
                JOINT leftMiddleProximal
                {
                  OFFSET 0.7368181082522638 0.0819260272939426 0.02272335773438093
                  CHANNELS 3 Yrotation Xrotation Zrotation
                  JOINT leftMiddleIntermediate
                  {
                    OFFSET 0.41136739116025356 -0.0000015892429323649537 5.27860346960507e-8
                    CHANNELS 3 Yrotation Xrotation Zrotation
                    JOINT leftMiddleDistal
                    {
                      OFFSET 0.25378150303820757 -0.0000015332469289752737 1.3442958385345705e-8
                      CHANNELS 3 Yrotation Xrotation Zrotation
                      End Site
                      {
                        OFFSET 0.25378150303820757 -0.0000015332469289752737 1.3442958385345705e-8
                      }
                    }
                  }
                }
                JOINT leftRingProximal
                {
                  OFFSET 0.7284256823094712 0.08192611199801392 -0.1508405069143483
                  CHANNELS 3 Yrotation Xrotation Zrotation
                  JOINT leftRingIntermediate
                  {
                    OFFSET 0.381593741461262 -0.0000016975471202052006 6.592486757883709e-8
                    CHANNELS 3 Yrotation Xrotation Zrotation
                    JOINT leftRingDistal
                    {
                      OFFSET 0.22014536669820362 -0.0027420652959939673 -0.005037497035641991
                      CHANNELS 3 Yrotation Xrotation Zrotation
                      End Site
                      {
                        OFFSET 0.22014536669820362 -0.0027420652959939673 -0.005037497035641991
                      }
                    }
                  }
                }
                JOINT leftThumbProximal
                {
                  OFFSET 0.10842212958334652 -0.16573713992498873 -0.07779936144556289
                  CHANNELS 3 Yrotation Xrotation Zrotation
                  JOINT leftThumbIntermediate
                  {
                    OFFSET 0.40720553822379024 -0.01751267955631075 0.31852684427382305
                    CHANNELS 3 Yrotation Xrotation Zrotation
                    JOINT leftThumbDistal
                    {
                      OFFSET 0.23412859218032667 -0.01859690713588802 0.2146635043319005
                      CHANNELS 3 Yrotation Xrotation Zrotation
                      End Site
                      {
                        OFFSET 0.23412859218032667 -0.01859690713588802 0.2146635043319005
                      }
                    }
                  }
                }
              }
            }
          }
        }
        JOINT rightShoulder
        {
          OFFSET -1.1700037144859516 -0.41760703856471126 0
          CHANNELS 3 Yrotation Xrotation Zrotation
          JOINT rightUpperArm
          {
            OFFSET -1.1803910289368023 0 0
            CHANNELS 3 Yrotation Xrotation Zrotation
            JOINT rightLowerArm
            {
              OFFSET -2.440617418222133 0 0
              CHANNELS 3 Yrotation Xrotation Zrotation
              JOINT rightHand
              {
                OFFSET -2.3832181162662343 0 0
                CHANNELS 3 Yrotation Xrotation Zrotation
                JOINT rightIndexProximal
                {
                  OFFSET -0.7310168852843362 0.08192787643494381 0.20404785424302163
                  CHANNELS 3 Yrotation Xrotation Zrotation
                  JOINT rightIndexIntermediate
                  {
                    OFFSET -0.3688846010723953 -0.01066191355993129 -0.014226020535245201
                    CHANNELS 3 Yrotation Xrotation Zrotation
                    JOINT rightIndexDistal
                    {
                      OFFSET -0.22711216276130997 -0.007898902439410271 -0.007580718044857868
                      CHANNELS 3 Yrotation Xrotation Zrotation
                      End Site
                      {
                        OFFSET -0.22711216276130997 -0.007898902439410271 -0.007580718044857868
                      }
                    }
                  }
                }
                JOINT rightLittleProximal
                {
                  OFFSET -0.6782685897119165 0.08192501740206293 -0.3238766118101876
                  CHANNELS 3 Yrotation Xrotation Zrotation
                  JOINT rightLittleIntermediate
                  {
                    OFFSET -0.34904682243945895 -2.664019085329983e-7 3.792712677253007e-8
                    CHANNELS 3 Yrotation Xrotation Zrotation
                    JOINT rightLittleDistal
                    {
                      OFFSET -0.20110609302945537 0.0031260842677420797 0.0038661724369087186
                      CHANNELS 3 Yrotation Xrotation Zrotation
                      End Site
                      {
                        OFFSET -0.20110609302945537 0.0031260842677420797 0.0038661724369087186
                      }
                    }
                  }
                }
                JOINT rightMiddleProximal
                {
                  OFFSET -0.7368168209984411 0.08192485183145659 0.022723294831187846
                  CHANNELS 3 Yrotation Xrotation Zrotation
                  JOINT rightMiddleIntermediate
                  {
                    OFFSET -0.4113687575187084 -9.03141548214137e-8 4.759541079313312e-8
                    CHANNELS 3 Yrotation Xrotation Zrotation
                    JOINT rightMiddleDistal
                    {
                      OFFSET -0.2537822083525749 -9.554208624251714e-8 -1.6364827826187422e-9
                      CHANNELS 3 Yrotation Xrotation Zrotation
                      End Site
                      {
                        OFFSET -0.2537822083525749 -9.554208624251714e-8 -1.6364827826187422e-9
                      }
                    }
                  }
                }
                JOINT rightRingProximal
                {
                  OFFSET -0.7284243957721679 0.08192492753028224 -0.15084062217729294
                  CHANNELS 3 Yrotation Xrotation Zrotation
                  JOINT rightRingIntermediate
                  {
                    OFFSET -0.381595106800805 -2.5662436442530634e-7 2.929475539925619e-8
                    CHANNELS 3 Yrotation Xrotation Zrotation
                    JOINT rightRingDistal
                    {
                      OFFSET -0.22014544912608125 -0.002738002524970362 -0.0050375115645966
                      CHANNELS 3 Yrotation Xrotation Zrotation
                      End Site
                      {
                        OFFSET -0.22014544912608125 -0.002738002524970362 -0.0050375115645966
                      }
                    }
                  }
                }
                JOINT rightThumbProximal
                {
                  OFFSET -0.10842026863657162 -0.16573778435706465 -0.07779917642461898
                  CHANNELS 3 Yrotation Xrotation Zrotation
                  JOINT rightThumbIntermediate
                  {
                    OFFSET -0.40720600760521597 -0.017512298079938038 0.3185267362029824
                    CHANNELS 3 Yrotation Xrotation Zrotation
                    JOINT rightThumbDistal
                    {
                      OFFSET -0.2341289751103648 -0.018594162598156494 0.21466399510514025
                      CHANNELS 3 Yrotation Xrotation Zrotation
                      End Site
                      {
                        OFFSET -0.2341289751103648 -0.018594162598156494 0.21466399510514025
                      }
                    }
                  }
                }
              }
            }
          }
        }
      }
    }
  }
  JOINT leftUpperLeg
  {
    OFFSET -0.8565189721517369 0.4427277044191169 0
    CHANNELS 3 Yrotation Xrotation Zrotation
    JOINT leftLowerLeg
    {
      OFFSET 0 -3.918486704769693 0
      CHANNELS 3 Yrotation Xrotation Zrotation
      JOINT leftFoot
      {
        OFFSET 6.174701361744139e-7 -0.055233446196002234 4.612027801972084
        CHANNELS 3 Yrotation Xrotation Zrotation
        JOINT leftToes
        {
          OFFSET -3.4372540951010944e-7 -0.705284859504459 1.2256624571888697
          CHANNELS 3 Yrotation Xrotation Zrotation
          End Site
          {
            OFFSET -3.4372540951010944e-7 -0.705284859504459 1.2256624571888697
          }
        }
      }
    }
  }
  JOINT rightUpperLeg
  {
    OFFSET 0.8565189732197466 0.44272769569168136 0
    CHANNELS 3 Yrotation Xrotation Zrotation
    JOINT rightLowerLeg
    {
      OFFSET 0 -3.918486692649319 0
      CHANNELS 3 Yrotation Xrotation Zrotation
      JOINT rightFoot
      {
        OFFSET 6.995136552362391e-7 -0.05523244834012664 4.612028499942008
        CHANNELS 3 Yrotation Xrotation Zrotation
        JOINT rightToes
        {
          OFFSET -4.2566694985479714e-7 -0.7052846587611067 1.22566236096697
          CHANNELS 3 Yrotation Xrotation Zrotation
          End Site
          {
            OFFSET -4.2566694985479714e-7 -0.7052846587611067 1.22566236096697
          }
        }
      }
    }
  }
}
MOTION
Frames: 4
Frame Time: 0.03333333333333333
-0.03990573436021805 -0.3336694253683028 -0.7786456346511841 5.661462981685764 19.278776075705917 2.8848180137628394 4.270650854596864 27.377894904338582 1.4449938070044879 1.0759328767411973 6.001969412487193 -4.512930173062829 0 0 0 -2.249777107417373 10.972551926475292 8.474731053747922 -17.58666533334617 -49.361382750154014 9.83150507356274 0 0 0 0 0 0 -1.9090729465588236 0.35984383840876166 16.959424409916355 -0.5109238412891277 14.144794970389539 -93.76770027840627 -35.55334372345514 0.13797318291413443 0.43035361189674537 -13.208497049330585 -2.219240640571076 -1.208528412952497 -5.857697713416678 -1.0420075996388338 -9.434715660726528 2.5997802937021004 0.574839378040966 -24.933526981030127 1.4513018225525405 0.17323054988096045 -13.614709245791023 4.762027151964449 1.6462888749869438 -26.461718745073977 -2.2931148126201992 0.25728728721084654 -17.135580842407247 0.8731243751359203 0.06212806653582794 -8.141906564829775 -4.111624293603173 -1.0677106493099902 -12.49718510110751 2.405890243729051 0.48872671901163234 -22.963617723492142 1.4577580156862329 0.1747976586362764 -13.676457708064088 -1.292700788111763 -0.8531846431683726 -19.647233001817458 2.0702678210140957 0.35793321558938046 -19.61790759598585 1.3495756205888336 0.14951506501517708 -12.644175367308241 15.6512047979098 -6.990227801298976 -17.04684461726529 7.6114068787175535 8.66008326150628 13.054388600435777 19.7670995252146 0.5673508775580666 3.000440894742433 5.832451128098394 1.461258599052681 -21.312784399966258 -45.07413045276324 -74.45721839421132 42.16971519970926 128.26391232994328 1.1984149355739873 -0.5811208779882164 14.732858150757055 -10.949180399341714 -28.198421335405524 2.1443515308842303 -0.5605056292316254 11.769652371484602 -1.5900237689361651 0.2062221190497241 14.77843132386131 -0.8652027987845499 0.06034501928814135 7.979279009038588 1.473027629406119 -1.014951956259556 20.791295732961892 -1.212740516487692 0.11912127966472053 11.219429064504748 -0.7301772734081913 0.04292395766318719 6.727845435146804 -1.7050089405626767 0.19674099745758805 10.65254093662286 -2.207977197201368 0.40414679179818686 20.743067323130617 -1.3854432625709354 0.14087360732042106 12.81377910551826 0.707869289875473 -0.35341247706937623 12.386089898968427 -1.4179671720144504 0.16343524259217146 13.149043051021954 -0.655396468977444 0.14287695330258834 6.144044904822384 -22.884408530067525 -8.559704260874454 14.867244000292112 -10.660089054064045 -5.675270726431598 -2.785775713141597 -0.1276697336666382 -2.0404559579135153 -4.560068132214351 -0.19580182820616 -33.69083502833925 -0.07083227663928456 -2.3108340148857325 19.548067506007776 -0.41114295866127937 -1.179968042156727 -5.333898780424624 -2.6573578289554964 6.606145020585409e-8 -0.00877529651260295 -8.090115501643932e-8 -0.13441071958422485 -35.75512196804523 -6.060413137467224 -10.75844275821409 23.779578802029977 -4.87896334212133 -11.264968808204433 -5.9380846648526076 6.407779849670195 -0.000012470188519562207 -0.011819756668118504 -0.0000036812047252063106
-0.03797106444835663 -0.3320348275899825 -0.7814351320266724 5.25225779844047 19.290560256722138 2.9664061187529684 4.189985856406002 27.283538508917033 1.489778759634129 1.0522210266710306 6.008469429346566 -4.453910544832446 0 0 0 -2.2983410775380375 10.985212891265776 8.408770162210923 -17.80046223396254 -49.272457930257836 9.844366747930296 0 0 0 0 0 0 -2.0820865511886963 0.40475744193246216 16.602345883145567 -0.47831680002258364 14.352811427785047 -93.53013657863447 -35.76472582703088 0.139558471801914 0.4325952919344907 -13.240234014829054 -2.415273789731178 -0.94507997806134 -5.815248288221872 -1.045565544643294 -9.517087549875287 2.602289243563524 0.5760017427570919 -24.959288059391596 1.4505801996780594 0.1730520169922393 -13.607847541154408 4.693415675631102 1.6061021050707978 -26.326836141738603 -2.2955250928776993 0.2565189632471179 -17.112146675154396 0.8758442213196082 0.06252533165053986 -8.16746509187436 -4.107927573309177 -1.0683260068485976 -12.526089750210676 2.4091963713105033 0.4901010779167722 -22.996893983781295 1.458868582460975 0.1750804191137482 -13.687050023329697 -1.288262723522939 -0.847088401805079 -19.594553111413 2.0712644744538538 0.358296503371946 -19.627777426858806 1.3495477738552102 0.14950512652248962 -12.64388375118618 15.65946448059966 -6.967864845254367 -17.027397623240518 7.576901120085351 8.67085448131849 13.025443244675802 19.76849751996352 0.5580397601070759 3.0077461933411347 5.882765258469075 1.4912124106590408 -21.729063276234935 -44.977173388094066 -73.54866253411052 42.02127557054461 128.60079255039346 1.2018230938103691 -0.5784158694167152 14.052549682693524 -9.584203636692655 -28.517203888122726 2.1541117543836306 -0.5610499893648587 11.74988437776976 -1.5919531230695383 0.20672447472089753 14.796913694711492 -0.863846210402797 0.060158142807883765 7.966654191117465 1.4810439481095246 -1.0128898767559862 20.718992903472955 -1.2099673796105301 0.1185781050343459 11.193399271561587 -0.7294098758857315 0.04282251531838872 6.720617938411937 -1.7103427723594529 0.1980292294723565 10.656002454372166 -2.210457444568047 0.4050889811909561 20.767450205100488 -1.3863346023283887 0.14105318047408544 12.822188040414954 0.6992322408875911 -0.3506537756254583 12.374491031915387 -1.4187126070475633 0.16360717196038638 13.15611081873244 -0.6549535767340879 0.14254588820407624 6.13978552013513 -22.8406586781468 -8.512404608253231 14.867687147400575 -10.689267354938375 -5.712094225704092 -2.7903975960032756 -0.12747255342234873 -2.039688142187575 -4.557477367599934 -0.22362683551458387 -33.5815531655629 -0.10073288139712575 -2.2674936242959345 19.393209377593287 -0.4663609673034568 -0.823379830031714 -5.285228046106763 -2.658066937840366 7.075509779926149e-7 -0.008799181330895734 3.377339161826908e-7 -0.15491433773736737 -35.81593353292025 -6.109743566036334 -10.735687169263821 23.691630316584778 -4.918274260692261 -10.804898118478704 -5.858146553933263 6.35063789987405 0.000012432209948666288 -0.011819756668118504 6.932450974797664e-7
-0.03885585814714432 -0.33298754823207233 -0.7844202518463135 4.9532321593561575 19.260025164298476 3.036639844906034 4.240396928474563 27.151572064254303 1.48778358139129 1.0615591918993044 6.118800912596765 -4.435475322227559 0 0 0 -2.328075052739156 10.964041433089147 8.389438239780773 -17.868437437292577 -49.19754068729527 9.786789707324107 0 0 0 0 0 0 -2.18087303675963 0.43036794323706123 16.52846688073176 -0.5435234196646399 14.371912234629987 -93.51756632455496 -35.930487244723096 0.1408406835746947 0.4343251755769608 -13.269288626396497 -2.4578630935733874 -0.7649106276735426 -5.8399331174817215 -1.0501089138143713 -9.524682921283114 2.6051104466984008 0.5773229710317171 -24.988132237384864 1.4501588428167782 0.1729590086016502 -13.603812019167544 4.652443178695408 1.5809900603012963 -26.23805410569414 -2.296489317557911 0.25622675629146713 -17.102852251913507 0.877545425150122 0.0627695043892195 -8.183376586365496 -4.095670181394376 -1.0652151702777988 -12.527035132996259 2.412295204709095 0.491430238798838 -23.028143005273293 1.460011989291666 0.17535389476359484 -13.69798939794533 -1.2705559098798032 -0.8374607968663553 -19.547075412977215 2.073415663113752 0.3590585112823065 -19.64896851356013 1.350465704955517 0.1497007747565443 -12.652671902607283 15.665745406652645 -6.937060434541224 -17.011010625632917 7.544822864961364 8.682843785591329 13.004911398241498 19.770283048617987 0.5477925050927497 3.0154646133531084 5.864036597980676 1.4938956643910153 -21.911402961464457 -45.01407778185491 -73.15605449099195 42.078789677228364 128.8010264179634 1.2038353480901405 -0.5767878825873499 13.73862851883498 -8.94331063519904 -28.386557659502714 2.14450037579534 -0.5574091116698539 11.724077680297306 -1.5947138680432518 0.20746307379085402 14.823066796474608 -0.8631321684781744 0.060059805371997184 7.960186509770639 1.4890283327726703 -1.012002133734987 20.670080583521308 -1.2068832148580468 0.11795408855106986 11.164544072734765 -0.7285584418053304 0.04273381955100307 6.712758461582388 -1.7176088318798717 0.2000581680847761 10.670318036872548 -2.2113594036075397 0.40543311393957393 20.77614370598136 -1.3874917914962728 0.14124253203513698 12.833030202867631 0.6975530435507148 -0.35015775054122383 12.376160832845725 -1.4184753518943973 0.1635518632109536 13.153918080932037 -0.6543328972063088 0.14265925368716625 6.134208071326167 -22.8168212350144 -8.497889630838854 14.888246433100019 -10.708151002590524 -5.732719164178459 -2.788770651452551 -0.12640096162649436 -2.0349106066125784 -4.550743948770245 -0.2274812718274707 -33.53532174230833 -0.11731349620540357 -2.2253495324089276 19.4141481649835 -0.5200144087074674 -0.5999618810256494 -5.312485996318882 -2.662645490026696 3.7573383496163193e-7 -0.008812050467990972 -2.9836218600297824e-7 -0.20028591231764037 -35.90094148871963 -6.130331892480291 -10.752629857604044 23.761845917937514 -4.987448129134616 -10.423119760856235 -5.86512850826332 6.314717574199805 -0.000007547189804963887 -0.011819756668118504 5.244136725453224e-7
-0.04180523008108139 -0.33501792085170123 -0.7886174917221069 4.7708306657072335 19.17457338268217 3.0737314029645635 4.35518360640185 27.101633086663277 1.4594314001963116 1.0902149579578948 6.2085531922208945 -4.404424555232371 0 0 0 -2.342977086478152 10.953613673114221 8.409588845949965 -17.870305551281966 -49.185046355184774 9.70396415491113 0 0 0 0 0 0 -2.3706961673145375 0.4771470559374752 16.560066149873023 -0.4908508277936112 14.434084671054565 -93.56247993384892 -36.09713771112948 0.14209058532220642 0.43610457704962297 -13.277895435116951 -2.4216011924967487 -0.6642499447602745 -5.861436179026307 -1.053397563631345 -9.526021119922673 2.6070274992939817 0.5782209731215894 -25.007805528445182 1.4499349452060153 0.17290476704762434 -13.601657576099948 4.634689974165776 1.5703688352568195 -26.22182819850687 -2.2957208624767804 0.2564773146840943 -17.11030860563231 0.8781051130664891 0.06284587715580627 -8.18868295310953 -4.088259577305221 -1.060570482785396 -12.499188373459859 2.415090136005387 0.4926408811090825 -23.056385632511343 1.461045954411893 0.17560493207339503 -13.707920692053063 -1.2526766178149422 -0.828609857206507 -19.507390703977194 2.076555950513334 0.36017070676550644 -19.67992927485319 1.3518081671246698 0.15001145604493352 -12.665383095277571 15.665663225892443 -6.901887039195437 -16.99476748249515 7.516896398998496 8.693985320866249 12.989042493233947 19.771831288685135 0.5388289729090866 3.022291919636851 5.941645000559624 1.5174570667029808 -21.880604173675295 -45.253388110537465 -73.02320787897116 42.10198740571211 128.84274418820775 1.2042485590487153 -0.5764564706723998 13.933517167368233 -8.611702070348061 -28.27108333290045 2.126187981502247 -0.552504165436792 11.705711493714391 -1.5984706964805666 0.2084495090147646 14.858830018268609 -0.8629327300431362 0.0600390546589327 7.9581713113252475 1.4951522195802256 -1.011741585420619 20.644183504041443 -1.203837000134919 0.11735835339312994 11.136105434929283 -0.7275336622164966 0.04260480631315062 6.7032909431773975 -1.7289009426178747 0.20332279195170844 10.694061970543814 -2.21184564186935 0.4056158527573719 20.780973123084575 -1.3884472524734337 0.1412195200974181 12.841430055151863 0.6969520022259104 -0.3500263203070704 12.385776480057022 -1.4176927043924439 0.16337685224142962 13.146479212096702 -0.6536666503288694 0.14280387538745673 6.128225203109748 -22.785761400798375 -8.47105382133035 14.901930460208455 -10.724663861101936 -5.750433335193138 -2.7854796679676954 -0.12545731944797153 -2.0306328565414686 -4.544399720416597 -0.20765401755868107 -33.507818382590145 -0.1160862006099888 -2.1691169982329175 19.535083320306693 -0.54323788336508 -0.5277170701559132 -5.370401361165871 -2.678124187283712 -5.358745087289455e-7 -0.008842370271715978 -1.7985582540467673e-7 -0.2393213153508687 -35.94834774240185 -6.115163360685953 -10.778272183716432 23.898564079484522 -5.061645563080876 -10.182962211318822 -5.907377851790071 6.294131617962712 0.0000042852137378769385 -0.011811032168485362 -0.0000017630412034743636
